<svg width="370" height="39" viewBox="0 0 370 39" fill="none" xmlns="http://www.w3.org/2000/svg">
<path d="M11.201 37L1.65555 2.09091H5.951L13.2465 30.5227H13.5874L21.0192 2.09091H25.7919L33.2237 30.5227H33.5646L40.8601 2.09091H45.1555L35.6101 37H31.2465L23.5419 9.18181H23.2692L15.5646 37H11.201Z" stroke="white" stroke-width="2" mask="url(#path-1-outside-1_5_22)"/>
<path d="M50.4226 37V2.09091H71.4908V5.84091H54.6499V17.6364H70.3999V21.3864H54.6499V33.25H71.7635V37H50.4226Z" stroke="white" stroke-width="2" mask="url(#path-1-outside-1_5_22)"/>
<path d="M79.1101 37V2.09091H91.3146C93.7465 2.09091 95.7521 2.51136 97.3317 3.35227C98.9112 4.18181 100.087 5.30113 100.86 6.71022C101.633 8.10795 102.019 9.65909 102.019 11.3636C102.019 12.8636 101.752 14.1023 101.218 15.0795C100.695 16.0568 100.002 16.8295 99.1385 17.3977C98.2862 17.9659 97.3601 18.3864 96.3601 18.6591V19C97.4283 19.0682 98.5021 19.4432 99.5817 20.125C100.661 20.8068 101.565 21.7841 102.292 23.0568C103.019 24.3295 103.383 25.8864 103.383 27.7273C103.383 29.4773 102.985 31.0511 102.19 32.4489C101.394 33.8466 100.139 34.9545 98.4226 35.7727C96.7067 36.5909 94.4737 37 91.7237 37H79.1101ZM83.3374 33.25H91.7237C94.4851 33.25 96.4453 32.7159 97.6044 31.6477C98.7749 30.5682 99.3601 29.2614 99.3601 27.7273C99.3601 26.5455 99.059 25.4545 98.4567 24.4545C97.8544 23.4432 96.9965 22.6364 95.8828 22.0341C94.7692 21.4205 93.451 21.1136 91.9283 21.1136H83.3374V33.25ZM83.3374 17.4318H91.1783C92.451 17.4318 93.5987 17.1818 94.6215 16.6818C95.6555 16.1818 96.4737 15.4773 97.076 14.5682C97.6896 13.6591 97.9965 12.5909 97.9965 11.3636C97.9965 9.82954 97.4624 8.52841 96.3942 7.46023C95.326 6.38068 93.6328 5.84091 91.3146 5.84091H83.3374V17.4318Z" stroke="white" stroke-width="2" mask="url(#path-1-outside-1_5_22)"/>
<path d="M121.511 37.4773C119.261 37.4773 117.255 37.0909 115.494 36.3182C113.744 35.5454 112.352 34.4716 111.317 33.0966C110.295 31.7102 109.738 30.1023 109.647 28.2727H113.942C114.033 29.3977 114.42 30.3693 115.102 31.1875C115.783 31.9943 116.675 32.6193 117.778 33.0625C118.88 33.5057 120.102 33.7273 121.442 33.7273C122.942 33.7273 124.272 33.4659 125.431 32.9432C126.59 32.4204 127.499 31.6932 128.158 30.7614C128.817 29.8295 129.147 28.75 129.147 27.5227C129.147 26.2386 128.829 25.1079 128.192 24.1307C127.556 23.142 126.624 22.3693 125.397 21.8125C124.17 21.2557 122.67 20.9773 120.897 20.9773H118.102V17.2273H120.897C122.283 17.2273 123.499 16.9773 124.545 16.4773C125.602 15.9773 126.425 15.2727 127.016 14.3636C127.619 13.4545 127.92 12.3864 127.92 11.1591C127.92 9.97727 127.658 8.94886 127.136 8.07386C126.613 7.19886 125.874 6.51704 124.92 6.02841C123.977 5.53977 122.863 5.29545 121.579 5.29545C120.374 5.29545 119.238 5.51704 118.17 5.96022C117.113 6.39204 116.249 7.02272 115.579 7.85227C114.908 8.67045 114.545 9.65909 114.488 10.8182H110.397C110.465 8.98863 111.016 7.38636 112.05 6.01136C113.085 4.625 114.437 3.54545 116.107 2.77272C117.789 2 119.636 1.61363 121.647 1.61363C123.806 1.61363 125.658 2.05113 127.204 2.92613C128.749 3.78977 129.937 4.93181 130.766 6.35227C131.596 7.77272 132.011 9.30682 132.011 10.9545C132.011 12.9205 131.494 14.5966 130.46 15.983C129.437 17.3693 128.045 18.3295 126.283 18.8636V19.1364C128.488 19.5 130.21 20.4375 131.448 21.9489C132.687 23.4489 133.306 25.3068 133.306 27.5227C133.306 29.4205 132.789 31.125 131.755 32.6364C130.732 34.1364 129.335 35.3182 127.562 36.1818C125.789 37.0455 123.772 37.4773 121.511 37.4773Z" stroke="white" stroke-width="2" mask="url(#path-1-outside-1_5_22)"/>
<path d="M147.232 37L137.687 2.09091H141.982L149.278 30.5227H149.619L157.05 2.09091H161.823L169.255 30.5227H169.596L176.891 2.09091H181.187L171.641 37H167.278L159.573 9.18181H159.3L151.596 37H147.232Z" stroke="white" stroke-width="2" mask="url(#path-1-outside-1_5_22)"/>
<path d="M185.167 37H180.735L193.553 2.09091H197.917L210.735 37H206.303L195.871 7.61363H195.599L185.167 37ZM186.803 23.3636H204.667V27.1136H186.803V23.3636Z" stroke="white" stroke-width="2" mask="url(#path-1-outside-1_5_22)"/>
<path d="M216.173 37V2.09091H227.968C230.695 2.09091 232.934 2.55681 234.684 3.48863C236.434 4.40909 237.729 5.67613 238.57 7.28977C239.411 8.90341 239.832 10.7386 239.832 12.7955C239.832 14.8523 239.411 16.6761 238.57 18.267C237.729 19.8579 236.44 21.1079 234.701 22.017C232.962 22.9148 230.741 23.3636 228.036 23.3636H218.491V19.5455H227.9C229.764 19.5455 231.264 19.2727 232.4 18.7273C233.548 18.1818 234.377 17.4091 234.888 16.4091C235.411 15.3977 235.673 14.1932 235.673 12.7955C235.673 11.3977 235.411 10.1761 234.888 9.13068C234.366 8.08522 233.531 7.27841 232.383 6.71022C231.235 6.13068 229.718 5.84091 227.832 5.84091H220.4V37H216.173ZM232.604 21.3182L241.195 37H236.286L227.832 21.3182H232.604Z" stroke="white" stroke-width="2" mask="url(#path-1-outside-1_5_22)"/>
<path d="M274.967 13H270.739C270.489 11.7841 270.052 10.7159 269.427 9.79545C268.813 8.875 268.063 8.10227 267.177 7.47727C266.302 6.84091 265.33 6.36363 264.262 6.04545C263.194 5.72727 262.08 5.56818 260.921 5.56818C258.808 5.56818 256.893 6.10227 255.177 7.17045C253.472 8.23863 252.114 9.8125 251.103 11.892C250.103 13.9716 249.603 16.5227 249.603 19.5455C249.603 22.5682 250.103 25.1193 251.103 27.1989C252.114 29.2784 253.472 30.8523 255.177 31.9205C256.893 32.9886 258.808 33.5227 260.921 33.5227C262.08 33.5227 263.194 33.3636 264.262 33.0455C265.33 32.7273 266.302 32.2557 267.177 31.6307C268.063 30.9943 268.813 30.2159 269.427 29.2955C270.052 28.3636 270.489 27.2954 270.739 26.0909H274.967C274.648 27.875 274.069 29.4716 273.228 30.8807C272.387 32.2898 271.342 33.4886 270.092 34.4773C268.842 35.4545 267.438 36.1989 265.881 36.7102C264.336 37.2216 262.683 37.4773 260.921 37.4773C257.944 37.4773 255.296 36.75 252.978 35.2955C250.66 33.8409 248.836 31.7727 247.506 29.0909C246.177 26.4091 245.512 23.2273 245.512 19.5455C245.512 15.8636 246.177 12.6818 247.506 10C248.836 7.31818 250.66 5.25 252.978 3.79545C255.296 2.34091 257.944 1.61363 260.921 1.61363C262.683 1.61363 264.336 1.86931 265.881 2.38068C267.438 2.89204 268.842 3.64204 270.092 4.63068C271.342 5.60795 272.387 6.80113 273.228 8.21023C274.069 9.60795 274.648 11.2045 274.967 13Z" stroke="white" stroke-width="2" mask="url(#path-1-outside-1_5_22)"/>
<path d="M281.798 37V2.09091H286.025V33.25H302.252V37H281.798Z" stroke="white" stroke-width="2" mask="url(#path-1-outside-1_5_22)"/>
<path d="M331.707 2.09091H335.934V25.2045C335.934 27.5909 335.371 29.7216 334.246 31.5966C333.133 33.4602 331.559 34.9318 329.525 36.0114C327.491 37.0795 325.104 37.6136 322.366 37.6136C319.627 37.6136 317.241 37.0795 315.207 36.0114C313.173 34.9318 311.593 33.4602 310.468 31.5966C309.354 29.7216 308.798 27.5909 308.798 25.2045V2.09091H313.025V24.8636C313.025 26.5682 313.4 28.0852 314.15 29.4148C314.9 30.733 315.968 31.7727 317.354 32.5341C318.752 33.2841 320.423 33.6591 322.366 33.6591C324.309 33.6591 325.979 33.2841 327.377 32.5341C328.775 31.7727 329.843 30.733 330.582 29.4148C331.332 28.0852 331.707 26.5682 331.707 24.8636V2.09091Z" stroke="white" stroke-width="2" mask="url(#path-1-outside-1_5_22)"/>
<path d="M344.376 37V2.09091H356.58C359.012 2.09091 361.018 2.51136 362.597 3.35227C364.177 4.18181 365.353 5.30113 366.126 6.71022C366.898 8.10795 367.285 9.65909 367.285 11.3636C367.285 12.8636 367.018 14.1023 366.484 15.0795C365.961 16.0568 365.268 16.8295 364.404 17.3977C363.552 17.9659 362.626 18.3864 361.626 18.6591V19C362.694 19.0682 363.768 19.4432 364.847 20.125C365.927 20.8068 366.83 21.7841 367.558 23.0568C368.285 24.3295 368.648 25.8864 368.648 27.7273C368.648 29.4773 368.251 31.0511 367.455 32.4489C366.66 33.8466 365.404 34.9545 363.688 35.7727C361.972 36.5909 359.739 37 356.989 37H344.376ZM348.603 33.25H356.989C359.751 33.25 361.711 32.7159 362.87 31.6477C364.04 30.5682 364.626 29.2614 364.626 27.7273C364.626 26.5455 364.325 25.4545 363.722 24.4545C363.12 23.4432 362.262 22.6364 361.148 22.0341C360.035 21.4205 358.717 21.1136 357.194 21.1136H348.603V33.25ZM348.603 17.4318H356.444C357.717 17.4318 358.864 17.1818 359.887 16.6818C360.921 16.1818 361.739 15.4773 362.342 14.5682C362.955 13.6591 363.262 12.5909 363.262 11.3636C363.262 9.82954 362.728 8.52841 361.66 7.46023C360.592 6.38068 358.898 5.84091 356.58 5.84091H348.603V17.4318Z" stroke="white" stroke-width="2" mask="url(#path-1-outside-1_5_22)"/>
</svg>
